<svg width="72" height="72" viewBox="0 0 72 72" fill="none" xmlns="http://www.w3.org/2000/svg">
<path d="M51.33 34.6801C48.8965 34.6829 46.541 35.5391 44.6737 37.0995C42.8063 38.6599 41.5452 40.8258 41.11 43.2201C41.0222 43.8259 40.9854 44.438 41 45.0501C40.998 47.1056 41.6064 49.1154 42.748 50.8248C43.8896 52.5341 45.513 53.8661 47.4124 54.6517C49.3119 55.4374 51.4018 55.6415 53.4174 55.238C55.4329 54.8346 57.2833 53.8418 58.7339 52.3855C60.1846 50.9292 61.1702 49.075 61.5659 47.0579C61.9615 45.0409 61.7494 42.9517 60.9564 41.0553C60.1634 39.159 58.8252 37.5407 57.1114 36.4057C55.3977 35.2708 53.3855 34.6702 51.33 34.6801ZM55.88 43.3401L51.75 48.5901C51.6306 48.7479 51.4804 48.8798 51.3085 48.9778C51.1366 49.0757 50.9466 49.1378 50.75 49.1601H50.6C50.2341 49.1652 49.8787 49.0373 49.6 48.8001L47 46.5601C46.8499 46.4316 46.7267 46.2748 46.6374 46.0986C46.5481 45.9224 46.4944 45.7303 46.4796 45.5333C46.4647 45.3363 46.4889 45.1383 46.5507 44.9507C46.6126 44.7631 46.7109 44.5896 46.84 44.4401C46.9135 44.3533 46.9974 44.276 47.09 44.2101C47.2086 44.1208 47.3401 44.05 47.48 44.0001L47.83 43.9301H47.91C48.1287 43.9217 48.3467 43.9592 48.55 44.0401L48.73 44.1301C48.8096 44.1742 48.8834 44.228 48.95 44.2901L50.39 45.5201L53.55 41.5201L53.67 41.3901L53.8 41.2701C54.088 41.0448 54.4485 40.9325 54.8135 40.9543C55.1785 40.9761 55.523 41.1305 55.7822 41.3885C56.0413 41.6464 56.1974 41.9902 56.2209 42.3551C56.2445 42.72 56.1339 43.0809 55.91 43.3701L55.88 43.3401Z" fill="#809DF7"/>
<path d="M33.35 18.58C30.0745 18.6143 26.9463 19.9464 24.6516 22.2842C22.357 24.6219 21.0833 27.7743 21.11 31.05C21.11 34.89 23.05 39.55 26.89 44.91C28.6182 47.3222 30.5164 49.608 32.57 51.75C32.779 51.9533 33.0585 52.0679 33.35 52.07C33.4908 52.0708 33.6305 52.0439 33.7609 51.9907C33.8913 51.9375 34.01 51.8591 34.11 51.76C35.4171 50.4722 36.6523 49.1135 37.81 47.69C37.6369 46.8206 37.5498 45.9364 37.55 45.05C37.5568 42.4239 38.3132 39.8544 39.7304 37.6436C41.1476 35.4328 43.1666 33.6725 45.55 32.57C45.6093 32.0654 45.6393 31.5579 45.64 31.05C45.6532 29.4238 45.3456 27.811 44.7348 26.3039C44.1241 24.7968 43.2222 23.4248 42.0807 22.2666C40.9392 21.1084 39.5805 20.1866 38.0824 19.554C36.5843 18.9214 34.9762 18.5904 33.35 18.58ZM33.35 36.43C32.1633 36.43 31.0033 36.0781 30.0166 35.4188C29.0299 34.7595 28.2608 33.8224 27.8067 32.7261C27.3526 31.6297 27.2338 30.4233 27.4653 29.2594C27.6968 28.0955 28.2682 27.0264 29.1074 26.1873C29.9465 25.3482 31.0156 24.7768 32.1795 24.5452C33.3433 24.3137 34.5497 24.4326 35.6461 24.8867C36.7425 25.3408 37.6795 26.1098 38.3388 27.0965C38.9981 28.0832 39.35 29.2433 39.35 30.43C39.35 32.0213 38.7179 33.5474 37.5926 34.6726C36.4674 35.7978 34.9413 36.43 33.35 36.43Z" fill="#567DF4"/>
</svg>
