<svg id="Слой_1" data-name="Слой 1" xmlns="http://www.w3.org/2000/svg" viewBox="0 0 288.83 63.86">
  <path d="M31.12,41.14a8.14,8.14,0,0,1-3.43,7q-3.42,2.47-10.13,2.47H.32V16.81H16.86q6.21,0,9.69,2.28A7.27,7.27,0,0,1,30,25.55a7.59,7.59,0,0,1-1.36,4.5,9,9,0,0,1-3.84,3Q31.13,34.93,31.12,41.14ZM7.86,30.94h8.3q6.15,0,6.15-4.25c0-2.74-2-4.12-6.15-4.12H7.86Zm15.59,9.69a3.83,3.83,0,0,0-1.52-3.32,8.12,8.12,0,0,0-4.75-1.11H7.86v8.68h9.06Q23.45,44.88,23.45,40.63Z" transform="translate(-0.32 -0.18)" style="fill: #0c2d48"/>
  <g>
    <path d="M131.7,50.64V28.21L120.3,47.09h-3.42L105.66,28.15V50.64H98.44V16.81h8.3l12,21.16,12.61-21.16h7.41l.06,33.83Z" transform="translate(-0.32 -0.18)" style="fill: #0c2d48"/>
    <path d="M181.06,36.26H154.51a9.19,9.19,0,0,0,3.65,5.92,11.9,11.9,0,0,0,7.31,2.19,12.33,12.33,0,0,0,9.19-3.67l4.25,4.87a14.31,14.31,0,0,1-5.77,4.12,22.8,22.8,0,0,1-17.68-.82,16,16,0,0,1-6.56-6.18,17.46,17.46,0,0,1-2.31-9,17.71,17.71,0,0,1,2.25-8.91,16,16,0,0,1,6.24-6.17,18.19,18.19,0,0,1,9-2.22,17.85,17.85,0,0,1,8.84,2.18A15.51,15.51,0,0,1,179,24.76a18.61,18.61,0,0,1,2.19,9.16C181.19,34.46,181.14,35.25,181.06,36.26ZM157.65,25a9.49,9.49,0,0,0-3.2,6h19.2a9.26,9.26,0,0,0-9.57-8.24A9.55,9.55,0,0,0,157.65,25Z" transform="translate(-0.32 -0.18)" style="fill: #0c2d48"/>
    <path d="M195.82,48.87a16.32,16.32,0,0,1-6.52-6.18,17.2,17.2,0,0,1-2.35-9,17,17,0,0,1,2.35-8.94,16.34,16.34,0,0,1,6.49-6.14,19.79,19.79,0,0,1,9.47-2.22,18.16,18.16,0,0,1,8.78,2,13.18,13.18,0,0,1,5.67,5.82l-6.08,3.55A9.64,9.64,0,0,0,210,24.32,10.59,10.59,0,0,0,197.85,26a10.35,10.35,0,0,0-2.91,7.7,10.39,10.39,0,0,0,2.88,7.69,10,10,0,0,0,7.38,2.89A9.84,9.84,0,0,0,210,43.13a9.64,9.64,0,0,0,3.65-3.51l6.08,3.55A13.78,13.78,0,0,1,214,49a18,18,0,0,1-8.72,2.06A19.84,19.84,0,0,1,195.82,48.87Z" transform="translate(-0.32 -0.18)" style="fill: #0c2d48"/>
    <path d="M253.17,23.52H241.32V50.64H233.4V23.52H221.48V16.81h31.69Z" transform="translate(-0.32 -0.18)" style="fill: #0c2d48"/>
    <path d="M289,36.26H262.48a9.17,9.17,0,0,0,3.64,5.92,12,12,0,0,0,7.32,2.19,12.33,12.33,0,0,0,9.19-3.67l4.24,4.87a14.28,14.28,0,0,1-5.76,4.12,22.8,22.8,0,0,1-17.68-.82,16,16,0,0,1-6.56-6.18,17.46,17.46,0,0,1-2.31-9,17.71,17.71,0,0,1,2.25-8.91,16,16,0,0,1,6.24-6.17,18.19,18.19,0,0,1,9-2.22,17.78,17.78,0,0,1,8.83,2.18A15.53,15.53,0,0,1,287,24.76a18.71,18.71,0,0,1,2.18,9.16C289.15,34.46,289.11,35.25,289,36.26ZM265.62,25a9.44,9.44,0,0,0-3.2,6h19.19a9.24,9.24,0,0,0-9.56-8.24A9.53,9.53,0,0,0,265.62,25Z" transform="translate(-0.32 -0.18)" style="fill: #0c2d48"/>
  </g>
  <g>
    <path d="M63.81.18A23.84,23.84,0,0,0,40,24c0,19.57,21.44,38.68,22.36,39.49a2.15,2.15,0,0,0,1.45.55,2.2,2.2,0,0,0,1.46-.55c.91-.8,22.36-19.92,22.36-39.49A23.85,23.85,0,0,0,63.81.18Zm0,58.63c-4.74-4.59-19.4-20-19.4-34.81a19.41,19.41,0,1,1,38.81,0C83.22,38.81,68.55,54.22,63.81,58.81Z" transform="translate(-0.32 -0.18)" style="fill: #ff855e"/>
    <path d="M63.81,12.91A11.1,11.1,0,1,0,74.84,24,11.06,11.06,0,0,0,63.81,12.91Zm0,17.78A6.69,6.69,0,1,1,70.43,24,6.66,6.66,0,0,1,63.81,30.69Z" transform="translate(-0.32 -0.18)" style="fill: #ff855e"/>
  </g>
</svg>
